<svg width="137" height="49" viewBox="0 0 137 49" fill="none" xmlns="http://www.w3.org/2000/svg">
<path d="M9.79264 47.7029H10.1527V48.4235H0V47.7029H0.360024C0.696043 47.7029 1.00807 47.5588 1.29608 47.2706C1.5841 46.9823 1.82412 46.6463 2.01613 46.2618C2.25614 45.8776 2.42415 45.4691 2.52016 45.0368C2.61617 44.5566 2.66417 44.1242 2.66417 43.7397V5.33235C2.66417 4.9961 2.61617 4.61179 2.52016 4.17944C2.42415 3.74709 2.25614 3.33874 2.01613 2.95442C1.82412 2.5701 1.5841 2.25785 1.29608 2.01765C1.00807 1.72942 0.696043 1.5853 0.360024 1.5853H0V0.86471H12.5288C17.3291 0.86471 21.0254 1.80148 23.6175 3.67499C26.2577 5.54853 27.5778 8.31081 27.5778 11.9618C27.5778 13.7873 27.2657 15.3966 26.6417 16.7898C26.0657 18.1348 25.2736 19.3118 24.2656 20.3207C23.2575 21.2814 22.0574 22.0741 20.6653 22.6986C19.3212 23.275 17.8811 23.7074 16.3451 23.9957L21.5294 31.9222C22.7775 33.8437 24.0496 35.7411 25.3456 37.6147C26.6417 39.4404 27.9138 41.3378 29.1619 43.3073C29.4979 43.7878 29.8579 44.2923 30.2419 44.8206C30.674 45.3492 31.106 45.8294 31.538 46.2618C32.018 46.6941 32.4981 47.0544 32.9782 47.3426C33.5061 47.5831 34.0341 47.7029 34.5623 47.7029V48.4235H31.466C29.5459 48.4235 27.9618 47.9673 26.7137 47.0544C25.5136 46.0937 24.5056 44.9889 23.6895 43.7397C21.5294 40.5691 19.3693 37.3507 17.2091 34.0838C15.097 30.8172 12.9848 27.5986 10.8727 24.428C10.3447 24.38 9.76862 24.3319 9.1446 24.2839C8.56856 24.1878 8.01652 24.0917 7.48849 23.9957V43.7397C7.48849 44.1242 7.53647 44.5566 7.6325 45.0368C7.7285 45.4691 7.87251 45.8776 8.06453 46.2618C8.30453 46.6463 8.54454 46.9823 8.78458 47.2706C9.07259 47.5588 9.40859 47.7029 9.79264 47.7029ZM7.48849 3.3147V21.6177H7.84852C8.23253 21.6657 8.83256 21.7138 9.64863 21.7618C10.5127 21.7618 11.5687 21.7618 12.8168 21.7618C13.8249 21.7618 14.8809 21.6177 15.985 21.3295C17.1371 20.9932 18.1932 20.4648 19.1532 19.7441C20.1613 18.9755 20.9773 17.9907 21.6014 16.7898C22.2734 15.5888 22.6095 14.0755 22.6095 12.25C22.6095 10.4245 22.2494 8.93533 21.5294 7.78239C20.8573 6.62945 19.8973 5.71669 18.6492 5.04411C17.4491 4.37157 15.985 3.91521 14.2569 3.67499C12.5288 3.43481 10.6327 3.3147 8.56856 3.3147H7.48849ZM42.7735 0.86471H53.0701V1.5853H52.7101C52.3743 1.5853 52.0621 1.72942 51.774 2.01765C51.486 2.25785 51.2461 2.5701 51.054 2.95442C50.8622 3.29069 50.694 3.69904 50.55 4.17944C50.4541 4.61179 50.406 4.9961 50.406 5.33235V43.7397C50.406 44.1242 50.4541 44.5566 50.55 45.0368C50.6462 45.4691 50.7902 45.8776 50.982 46.2618C51.2222 46.6463 51.4621 46.9823 51.702 47.2706C51.9901 47.5588 52.3262 47.7029 52.7101 47.7029H53.0701V48.4235H42.7735V47.7029H43.1335C43.5177 47.7029 43.8535 47.5831 44.1416 47.3426C44.4296 47.0544 44.6698 46.7183 44.8616 46.3338C45.1018 45.9015 45.2697 45.4691 45.3656 45.0368C45.4619 44.5566 45.5096 44.1242 45.5096 43.7397V5.33235C45.5096 4.9961 45.4619 4.61179 45.3656 4.17944C45.2697 3.74709 45.1018 3.33874 44.8616 2.95442C44.6698 2.5701 44.4296 2.25785 44.1416 2.01765C43.8535 1.72942 43.5177 1.5853 43.1335 1.5853H42.7735V0.86471ZM92.7564 35.6691C92.7564 38.0713 92.2766 40.1367 91.3164 41.8662C90.3564 43.5478 89.1084 44.9169 87.5721 45.9735C86.0842 47.0305 84.38 47.7992 82.4598 48.2794C80.5877 48.7599 78.7156 49 76.8434 49C74.9235 49 73.2674 48.8081 71.8751 48.4235C70.4831 48.0393 69.2109 47.679 68.0589 47.3426C67.291 47.1026 66.5949 46.9103 65.9707 46.7662C65.3469 46.5742 64.7228 46.4779 64.0986 46.4779V38.2632H64.8187C64.8187 40.0889 65.2749 41.554 66.1867 42.6588C67.147 43.7158 68.251 44.5323 69.499 45.1088C70.7473 45.6853 71.9952 46.0698 73.2432 46.2618C74.4915 46.4059 75.4033 46.4779 75.9794 46.4779C78.0436 46.4779 79.8198 46.1897 81.3077 45.6132C82.7959 44.9889 84.02 44.1963 84.9799 43.2353C85.9402 42.2265 86.6361 41.1217 87.0681 39.9206C87.5482 38.7198 87.7881 37.4948 87.7881 36.2456C87.7881 34.6603 87.4523 33.3393 86.7801 32.2824C86.1081 31.1775 85.2202 30.2167 84.1159 29.4001C83.06 28.5834 81.836 27.8868 80.4437 27.3104C79.0517 26.7339 77.6355 26.1574 76.1954 25.581C74.5635 24.9564 72.9552 24.3079 71.3711 23.6354C69.787 22.9628 68.3711 22.1461 67.1228 21.1854C65.8748 20.1765 64.8668 18.9995 64.0986 17.6545C63.3308 16.2613 62.9465 14.5559 62.9465 12.5382C62.9465 10.4245 63.3547 8.59905 64.1706 7.0618C64.9869 5.47647 66.067 4.17941 67.4108 3.1706C68.8031 2.16177 70.363 1.41716 72.0911 0.936769C73.8673 0.408337 75.6675 0.14412 77.4915 0.14412C78.7398 0.14412 79.9157 0.240199 81.0197 0.432356C82.124 0.576474 83.1798 0.768629 84.1879 1.00882C85.0042 1.20098 85.7962 1.36912 86.564 1.51324C87.3322 1.60932 88.0761 1.65736 88.7962 1.65736V9.07945H88.0761C87.9802 6.58139 86.9961 4.9 85.124 4.03529C83.2518 3.12256 80.6597 2.66618 77.3475 2.66618C75.4276 2.66618 73.8435 3.00246 72.5952 3.67499C71.3953 4.29952 70.435 5.09216 69.715 6.05297C68.9949 6.9657 68.4909 7.97452 68.2029 9.07945C67.963 10.1363 67.8429 11.0731 67.8429 11.8897C67.8429 13.2348 68.1309 14.3878 68.7069 15.3486C69.3311 16.3094 70.147 17.1501 71.1551 17.8706C72.1631 18.5912 73.3152 19.2398 74.6113 19.8162C75.9555 20.3927 77.3475 20.9451 78.7876 21.4736C80.4198 22.0981 82.0759 22.7706 83.7559 23.4912C85.4362 24.2118 86.9241 25.1006 88.2202 26.1574C89.5644 27.2143 90.6444 28.5113 91.4604 30.0486C92.3244 31.5859 92.7564 33.4595 92.7564 35.6691ZM126.343 47.7029H126.703C127.855 47.7029 128.431 47.1746 128.431 46.1176C128.431 45.7334 128.359 45.325 128.215 44.8926L121.735 27.3824H109.134L102.87 44.6044C102.726 44.9889 102.654 45.3492 102.654 45.6853C102.654 46.3099 102.822 46.8143 103.158 47.1985C103.494 47.5349 103.854 47.7029 104.238 47.7029H104.598V48.4235H96.6054V47.7029H96.9654C97.5896 47.7029 98.1895 47.3426 98.7656 46.6221C99.3897 45.8536 99.8937 44.9647 100.278 43.9559L116.767 0L132.896 43.5235C133.232 44.4845 133.688 45.4213 134.264 46.3338C134.888 47.2467 135.68 47.7029 136.64 47.7029H137V48.4235H126.343V47.7029ZM109.854 24.9324H120.943L115.399 9.87207L109.854 24.9324Z" fill="white"/>
</svg>
