<svg width="24" height="24" viewBox="0 0 24 24" fill="none" xmlns="http://www.w3.org/2000/svg">
<g clip-path="url(#clip0_268_360)">
<g clip-path="url(#clip1_268_360)">
<mask id="mask0_268_360" style="mask-type:luminance" maskUnits="userSpaceOnUse" x="0" y="0" width="24" height="24">
<path d="M0 0H24V24H0V0Z" fill="white"/>
</mask>
<g mask="url(#mask0_268_360)">
<path d="M22.2233 0H1.77225C0.792 0 0 0.77325 0 1.7295V22.266C0 23.2215 0.792 24 1.7715 24H22.224C23.202 24 24 23.2215 24 22.2705V1.7295C24 0.77325 23.2028 0 22.2233 0ZM7.1205 20.4517H3.558V8.9955H7.1205V20.4517ZM5.33925 7.434C5.06805 7.43449 4.79941 7.38151 4.5487 7.27809C4.29799 7.17467 4.07013 7.02284 3.87815 6.83128C3.68617 6.63972 3.53385 6.41219 3.42988 6.16171C3.32591 5.91123 3.27235 5.6427 3.27225 5.3715C3.27235 5.1003 3.32591 4.83177 3.42988 4.58129C3.53385 4.33081 3.68617 4.10328 3.87815 3.91172C4.07013 3.72016 4.29799 3.56833 4.5487 3.46491C4.79941 3.36149 5.06805 3.30851 5.33925 3.309C5.88626 3.309 6.41086 3.5263 6.79766 3.91309C7.18445 4.29989 7.40175 4.82449 7.40175 5.3715C7.40175 5.91851 7.18445 6.44311 6.79766 6.82991C6.41086 7.2167 5.88626 7.434 5.33925 7.434ZM20.4517 20.4517H16.8937V14.883C16.8937 13.5562 16.8705 11.8455 15.042 11.8455C13.1902 11.8455 12.909 13.2937 12.909 14.7892V20.4517H9.35625V8.9955H12.7687V10.5608H12.816C13.2885 9.66075 14.451 8.70975 16.1813 8.70975C19.7858 8.70975 20.4517 11.0812 20.4517 14.1652V20.4517Z" fill="#F9F8F7"/>
</g>
</g>
</g>
<defs>
<clipPath id="clip0_268_360">
<rect width="24" height="24" fill="white"/>
</clipPath>
<clipPath id="clip1_268_360">
<rect width="24" height="24" fill="white"/>
</clipPath>
</defs>
</svg>
