<svg width="338" height="25" viewBox="0 0 338 25" fill="none" xmlns="http://www.w3.org/2000/svg">
<rect width="338" height="25" rx="12.5" fill="#37051C"/>
<path d="M13.152 16V7.408H16.128C16.996 7.408 17.686 7.64 18.198 8.104C18.71 8.564 18.966 9.198 18.966 10.006C18.966 10.822 18.692 11.472 18.144 11.956C17.596 12.44 16.896 12.682 16.044 12.682H13.74V11.626H16.032C16.536 11.626 16.954 11.488 17.286 11.212C17.618 10.932 17.784 10.536 17.784 10.024C17.784 9.52 17.626 9.138 17.31 8.878C16.998 8.614 16.594 8.482 16.098 8.482H14.316V16H13.152ZM18.186 16L15.522 12.172L16.794 12.118L19.596 16H18.186ZM21.0036 16V7.408H22.1676V16H21.0036ZM27.0283 16.198C26.5003 16.198 26.0323 16.124 25.6243 15.976C25.2163 15.828 24.8743 15.612 24.5983 15.328C24.3263 15.044 24.1243 14.746 23.9923 14.434C23.8643 14.122 23.8003 13.966 23.8003 13.966L24.8503 13.522C24.8503 13.522 24.9063 13.65 25.0183 13.906C25.1343 14.158 25.2863 14.382 25.4743 14.578C25.6623 14.77 25.8883 14.914 26.1523 15.01C26.4203 15.106 26.7263 15.154 27.0703 15.154C27.6223 15.154 28.0563 15.02 28.3723 14.752C28.6883 14.484 28.8463 14.138 28.8463 13.714C28.8463 13.306 28.7163 12.982 28.4563 12.742C28.2003 12.498 27.6383 12.252 26.7703 12.004C25.7983 11.72 25.1263 11.382 24.7543 10.99C24.3823 10.598 24.1963 10.108 24.1963 9.52C24.1963 8.844 24.4483 8.29 24.9523 7.858C25.4563 7.422 26.1163 7.204 26.9323 7.204C27.3803 7.204 27.7763 7.264 28.1203 7.384C28.4643 7.5 28.7603 7.672 29.0083 7.9C29.2563 8.124 29.4443 8.36 29.5723 8.608C29.7043 8.852 29.7703 8.974 29.7703 8.974L28.7383 9.424C28.7383 9.424 28.6923 9.344 28.6003 9.184C28.5083 9.024 28.3803 8.868 28.2163 8.716C28.0563 8.564 27.8703 8.45 27.6583 8.374C27.4503 8.294 27.2023 8.254 26.9143 8.254C26.4343 8.254 26.0503 8.364 25.7623 8.584C25.4783 8.804 25.3363 9.092 25.3363 9.448C25.3363 9.8 25.4683 10.084 25.7323 10.3C26.0003 10.516 26.5523 10.752 27.3883 11.008C28.3163 11.276 28.9803 11.62 29.3803 12.04C29.7843 12.456 29.9863 12.99 29.9863 13.642C29.9863 14.398 29.7143 15.014 29.1703 15.49C28.6303 15.962 27.9163 16.198 27.0283 16.198ZM30.7219 16L34.1059 7.408H35.2939L38.6719 16H37.4299L35.0839 9.838L34.7119 8.74H34.6759L34.3099 9.838L31.9519 16H30.7219ZM32.1559 13.834L32.5159 12.766H36.7459L37.1179 13.834H32.1559ZM39.7943 17.11L40.5623 15.982C40.4143 15.942 40.2863 15.854 40.1783 15.718C40.0703 15.582 40.0163 15.418 40.0163 15.226C40.0163 14.998 40.0963 14.804 40.2563 14.644C40.4203 14.48 40.6223 14.398 40.8623 14.398C41.1023 14.398 41.3043 14.48 41.4683 14.644C41.6323 14.804 41.7143 14.998 41.7143 15.226C41.7143 15.35 41.6883 15.476 41.6363 15.604C41.5843 15.732 41.4863 15.904 41.3423 16.12L40.4123 17.524C40.4123 17.524 40.2063 17.386 39.7943 17.11ZM46.7145 16V7.408H47.8785V16H46.7145ZM50.1833 16V7.408H51.4433L55.8533 14.08H55.8893L55.8233 12.652V7.408H56.9513V16H55.8773L51.2993 9.16H51.2633L51.3113 10.54V16H50.1833ZM63.2616 16.198C61.9496 16.198 60.8716 15.778 60.0276 14.938C59.1876 14.094 58.7676 13.012 58.7676 11.692C58.7676 10.404 59.2036 9.334 60.0756 8.482C60.9516 7.63 62.0276 7.204 63.3036 7.204C63.7356 7.204 64.1376 7.254 64.5096 7.354C64.8856 7.454 65.2356 7.604 65.5596 7.804C65.8836 8 66.1316 8.19 66.3036 8.374C66.4756 8.554 66.5616 8.644 66.5616 8.644L65.7696 9.424C65.7696 9.424 65.6936 9.346 65.5416 9.19C65.3936 9.034 65.2056 8.884 64.9776 8.74C64.7496 8.596 64.4996 8.486 64.2276 8.41C63.9596 8.33 63.6456 8.29 63.2856 8.29C62.3696 8.29 61.5896 8.602 60.9456 9.226C60.3016 9.85 59.9796 10.672 59.9796 11.692C59.9796 12.708 60.2976 13.532 60.9336 14.164C61.5696 14.796 62.3416 15.112 63.2496 15.112C63.6056 15.112 63.9356 15.066 64.2396 14.974C64.5436 14.878 64.8296 14.746 65.0976 14.578C65.3696 14.406 65.5816 14.24 65.7336 14.08C65.8896 13.92 65.9676 13.84 65.9676 13.84L66.7836 14.59C66.7836 14.59 66.6896 14.696 66.5016 14.908C66.3136 15.12 66.0436 15.332 65.6916 15.544C65.3436 15.756 64.9676 15.918 64.5636 16.03C64.1596 16.142 63.7256 16.198 63.2616 16.198ZM71.5025 16.192C70.4745 16.192 69.6665 15.892 69.0785 15.292C68.4945 14.692 68.2025 13.864 68.2025 12.808V7.408H69.3665V12.838C69.3665 13.562 69.5525 14.122 69.9245 14.518C70.2965 14.91 70.8245 15.106 71.5085 15.106C72.1965 15.106 72.7265 14.914 73.0985 14.53C73.4705 14.142 73.6565 13.578 73.6565 12.838V7.408H74.8025V12.808C74.8025 13.88 74.5005 14.712 73.8965 15.304C73.2925 15.896 72.4945 16.192 71.5025 16.192ZM76.9254 16V7.408H80.0334C80.8254 7.408 81.4574 7.618 81.9294 8.038C82.4054 8.458 82.6434 8.986 82.6434 9.622C82.6434 10.102 82.5234 10.5 82.2834 10.816C82.0434 11.132 81.7294 11.36 81.3414 11.5V11.542C81.8334 11.658 82.2334 11.9 82.5414 12.268C82.8494 12.632 83.0034 13.072 83.0034 13.588C83.0034 14.284 82.7574 14.86 82.2654 15.316C81.7774 15.772 81.1254 16 80.3094 16H76.9254ZM78.0894 14.938H80.2854C80.7254 14.938 81.0934 14.808 81.3894 14.548C81.6894 14.288 81.8394 13.95 81.8394 13.534C81.8394 13.126 81.6874 12.784 81.3834 12.508C81.0834 12.228 80.6914 12.088 80.2074 12.088H77.7054V11.062H80.0214C80.4574 11.062 80.8134 10.942 81.0894 10.702C81.3654 10.462 81.5034 10.142 81.5034 9.742C81.5034 9.338 81.3634 9.024 81.0834 8.8C80.8034 8.576 80.4514 8.464 80.0274 8.464H78.0894V14.938ZM83.925 16L87.309 7.408H88.497L91.875 16H90.633L88.287 9.838L87.915 8.74H87.879L87.513 9.838L85.155 16H83.925ZM85.359 13.834L85.719 12.766H89.949L90.321 13.834H85.359ZM93.32 16V7.408H96.164C97.512 7.408 98.582 7.79 99.374 8.554C100.166 9.314 100.562 10.36 100.562 11.692C100.562 12.996 100.162 14.04 99.362 14.824C98.562 15.608 97.496 16 96.164 16H93.32ZM94.508 14.902H96.092C97.108 14.902 97.908 14.628 98.492 14.08C99.076 13.528 99.368 12.734 99.368 11.698C99.368 10.646 99.074 9.852 98.486 9.316C97.902 8.776 97.106 8.506 96.098 8.506H94.508V14.902ZM106.381 16.198C105.117 16.198 104.053 15.78 103.189 14.944C102.325 14.108 101.893 13.024 101.893 11.692C101.893 10.396 102.319 9.324 103.171 8.476C104.027 7.628 105.097 7.204 106.381 7.204C107.641 7.204 108.703 7.626 109.567 8.47C110.435 9.31 110.869 10.384 110.869 11.692C110.869 12.976 110.439 14.048 109.579 14.908C108.719 15.768 107.653 16.198 106.381 16.198ZM106.381 15.112C107.317 15.112 108.097 14.8 108.721 14.176C109.349 13.552 109.663 12.724 109.663 11.692C109.663 10.676 109.345 9.856 108.709 9.232C108.073 8.608 107.297 8.296 106.381 8.296C105.453 8.296 104.673 8.602 104.041 9.214C103.413 9.826 103.099 10.652 103.099 11.692C103.099 12.728 103.415 13.558 104.047 14.182C104.683 14.802 105.461 15.112 106.381 15.112ZM112.691 16V7.408H115.667C116.535 7.408 117.225 7.64 117.737 8.104C118.249 8.564 118.505 9.198 118.505 10.006C118.505 10.822 118.231 11.472 117.683 11.956C117.135 12.44 116.435 12.682 115.583 12.682H113.279V11.626H115.571C116.075 11.626 116.493 11.488 116.825 11.212C117.157 10.932 117.323 10.536 117.323 10.024C117.323 9.52 117.165 9.138 116.849 8.878C116.537 8.614 116.133 8.482 115.637 8.482H113.855V16H112.691ZM117.725 16L115.061 12.172L116.333 12.118L119.135 16H117.725ZM119.691 16L123.075 7.408H124.263L127.641 16H126.399L124.053 9.838L123.681 8.74H123.645L123.279 9.838L120.921 16H119.691ZM121.125 13.834L121.485 12.766H125.715L126.087 13.834H121.125ZM132.144 16V7.408H134.988C136.336 7.408 137.406 7.79 138.198 8.554C138.99 9.314 139.386 10.36 139.386 11.692C139.386 12.996 138.986 14.04 138.186 14.824C137.386 15.608 136.32 16 134.988 16H132.144ZM133.332 14.902H134.916C135.932 14.902 136.732 14.628 137.316 14.08C137.9 13.528 138.192 12.734 138.192 11.698C138.192 10.646 137.898 9.852 137.31 9.316C136.726 8.776 135.93 8.506 134.922 8.506H133.332V14.902ZM141.203 16V7.408H146.375V8.482H142.367V14.92H146.501V16H141.203ZM141.899 12.13V11.056H145.793V12.13H141.899ZM151.433 16V7.408H152.963L155.843 14.53H155.879L158.765 7.408H160.253V16H159.131V10.942L159.185 9.106H159.149L156.353 16H155.345L152.525 9.094H152.489L152.555 10.942V16H151.433ZM165.674 16.192C164.646 16.192 163.838 15.892 163.25 15.292C162.666 14.692 162.374 13.864 162.374 12.808V7.408H163.538V12.838C163.538 13.562 163.724 14.122 164.096 14.518C164.468 14.91 164.996 15.106 165.68 15.106C166.368 15.106 166.898 14.914 167.27 14.53C167.642 14.142 167.828 13.578 167.828 12.838V7.408H168.974V12.808C168.974 13.88 168.672 14.712 168.068 15.304C167.464 15.896 166.666 16.192 165.674 16.192ZM171.097 16V7.408H176.269V8.482H172.261V14.92H176.395V16H171.097ZM171.793 12.13V11.056H175.687V12.13H171.793ZM179.985 16.192C179.585 16.192 179.229 16.128 178.917 16C178.609 15.876 178.339 15.698 178.107 15.466C177.875 15.234 177.703 15.006 177.591 14.782C177.479 14.554 177.423 14.44 177.423 14.44L178.371 13.894C178.371 13.894 178.411 13.976 178.491 14.14C178.575 14.304 178.683 14.464 178.815 14.62C178.947 14.772 179.109 14.896 179.301 14.992C179.493 15.084 179.723 15.13 179.991 15.13C180.427 15.13 180.787 14.988 181.071 14.704C181.355 14.416 181.497 13.972 181.497 13.372V7.408H182.661V13.342C182.661 14.23 182.415 14.928 181.923 15.436C181.431 15.94 180.785 16.192 179.985 16.192ZM184.832 16V7.408H190.004V8.482H185.996V14.92H190.13V16H184.832ZM185.528 12.13V11.056H189.422V12.13H185.528ZM192.004 16V7.408H194.98C195.848 7.408 196.538 7.64 197.05 8.104C197.562 8.564 197.818 9.198 197.818 10.006C197.818 10.822 197.544 11.472 196.996 11.956C196.448 12.44 195.748 12.682 194.896 12.682H192.592V11.626H194.884C195.388 11.626 195.806 11.488 196.138 11.212C196.47 10.932 196.636 10.536 196.636 10.024C196.636 9.52 196.478 9.138 196.162 8.878C195.85 8.614 195.446 8.482 194.95 8.482H193.168V16H192.004ZM197.038 16L194.374 12.172L195.646 12.118L198.448 16H197.038ZM199.855 16V7.408H205.027V8.482H201.019V14.92H205.153V16H199.855ZM200.551 12.13V11.056H204.445V12.13H200.551ZM209.583 16.198C209.055 16.198 208.587 16.124 208.179 15.976C207.771 15.828 207.429 15.612 207.153 15.328C206.881 15.044 206.679 14.746 206.547 14.434C206.419 14.122 206.355 13.966 206.355 13.966L207.405 13.522C207.405 13.522 207.461 13.65 207.573 13.906C207.689 14.158 207.841 14.382 208.029 14.578C208.217 14.77 208.443 14.914 208.707 15.01C208.975 15.106 209.281 15.154 209.625 15.154C210.177 15.154 210.611 15.02 210.927 14.752C211.243 14.484 211.401 14.138 211.401 13.714C211.401 13.306 211.271 12.982 211.011 12.742C210.755 12.498 210.193 12.252 209.325 12.004C208.353 11.72 207.681 11.382 207.309 10.99C206.937 10.598 206.751 10.108 206.751 9.52C206.751 8.844 207.003 8.29 207.507 7.858C208.011 7.422 208.671 7.204 209.487 7.204C209.935 7.204 210.331 7.264 210.675 7.384C211.019 7.5 211.315 7.672 211.563 7.9C211.811 8.124 211.999 8.36 212.127 8.608C212.259 8.852 212.325 8.974 212.325 8.974L211.293 9.424C211.293 9.424 211.247 9.344 211.155 9.184C211.063 9.024 210.935 8.868 210.771 8.716C210.611 8.564 210.425 8.45 210.213 8.374C210.005 8.294 209.757 8.254 209.469 8.254C208.989 8.254 208.605 8.364 208.317 8.584C208.033 8.804 207.891 9.092 207.891 9.448C207.891 9.8 208.023 10.084 208.287 10.3C208.555 10.516 209.107 10.752 209.943 11.008C210.871 11.276 211.535 11.62 211.935 12.04C212.339 12.456 212.541 12.99 212.541 13.642C212.541 14.398 212.269 15.014 211.725 15.49C211.185 15.962 210.471 16.198 209.583 16.198ZM217.328 16V7.408H222.5V8.482H218.492V14.92H222.626V16H217.328ZM218.024 12.13V11.056H221.918V12.13H218.024ZM224.5 16V7.408H226.03L228.91 14.53H228.946L231.832 7.408H233.32V16H232.198V10.942L232.252 9.106H232.216L229.42 16H228.412L225.592 9.094H225.556L225.622 10.942V16H224.5ZM235.621 16V7.408H238.735C239.551 7.408 240.205 7.66 240.697 8.164C241.189 8.668 241.435 9.332 241.435 10.156C241.435 11.004 241.185 11.678 240.685 12.178C240.189 12.678 239.493 12.928 238.597 12.928H236.281V11.866H238.525C239.073 11.866 239.497 11.722 239.797 11.434C240.101 11.142 240.253 10.73 240.253 10.198C240.253 9.674 240.099 9.258 239.791 8.95C239.487 8.638 239.075 8.482 238.555 8.482H236.785V16H235.621ZM243.109 16V7.408H246.085C246.953 7.408 247.643 7.64 248.155 8.104C248.667 8.564 248.923 9.198 248.923 10.006C248.923 10.822 248.649 11.472 248.101 11.956C247.553 12.44 246.853 12.682 246.001 12.682H243.697V11.626H245.989C246.493 11.626 246.911 11.488 247.243 11.212C247.575 10.932 247.741 10.536 247.741 10.024C247.741 9.52 247.583 9.138 247.267 8.878C246.955 8.614 246.551 8.482 246.055 8.482H244.273V16H243.109ZM248.143 16L245.479 12.172L246.751 12.118L249.553 16H248.143ZM250.961 16V7.408H256.133V8.482H252.125V14.92H256.259V16H250.961ZM251.657 12.13V11.056H255.551V12.13H251.657ZM258.132 16V7.408H259.392L263.802 14.08H263.838L263.772 12.652V7.408H264.9V16H263.826L259.248 9.16H259.212L259.26 10.54V16H258.132ZM267.203 16V7.408H270.047C271.395 7.408 272.465 7.79 273.257 8.554C274.049 9.314 274.445 10.36 274.445 11.692C274.445 12.996 274.045 14.04 273.245 14.824C272.445 15.608 271.379 16 270.047 16H267.203ZM268.391 14.902H269.975C270.991 14.902 271.791 14.628 272.375 14.08C272.959 13.528 273.251 12.734 273.251 11.698C273.251 10.646 272.957 9.852 272.369 9.316C271.785 8.776 270.989 8.506 269.981 8.506H268.391V14.902ZM276.261 16V7.408H281.433V8.482H277.425V14.92H281.559V16H276.261ZM276.957 12.13V11.056H280.851V12.13H276.957ZM283.433 16V7.408H286.277C287.625 7.408 288.695 7.79 289.487 8.554C290.279 9.314 290.675 10.36 290.675 11.692C290.675 12.996 290.275 14.04 289.475 14.824C288.675 15.608 287.609 16 286.277 16H283.433ZM284.621 14.902H286.205C287.221 14.902 288.021 14.628 288.605 14.08C289.189 13.528 289.481 12.734 289.481 11.698C289.481 10.646 289.187 9.852 288.599 9.316C288.015 8.776 287.219 8.506 286.211 8.506H284.621V14.902ZM296.494 16.198C295.23 16.198 294.166 15.78 293.302 14.944C292.438 14.108 292.006 13.024 292.006 11.692C292.006 10.396 292.432 9.324 293.284 8.476C294.14 7.628 295.21 7.204 296.494 7.204C297.754 7.204 298.816 7.626 299.68 8.47C300.548 9.31 300.982 10.384 300.982 11.692C300.982 12.976 300.552 14.048 299.692 14.908C298.832 15.768 297.766 16.198 296.494 16.198ZM296.494 15.112C297.43 15.112 298.21 14.8 298.834 14.176C299.462 13.552 299.776 12.724 299.776 11.692C299.776 10.676 299.458 9.856 298.822 9.232C298.186 8.608 297.41 8.296 296.494 8.296C295.566 8.296 294.786 8.602 294.154 9.214C293.526 9.826 293.212 10.652 293.212 11.692C293.212 12.728 293.528 13.558 294.16 14.182C294.796 14.802 295.574 15.112 296.494 15.112ZM302.804 16V7.408H305.78C306.648 7.408 307.338 7.64 307.85 8.104C308.362 8.564 308.618 9.198 308.618 10.006C308.618 10.822 308.344 11.472 307.796 11.956C307.248 12.44 306.548 12.682 305.696 12.682H303.392V11.626H305.684C306.188 11.626 306.606 11.488 306.938 11.212C307.27 10.932 307.436 10.536 307.436 10.024C307.436 9.52 307.278 9.138 306.962 8.878C306.65 8.614 306.246 8.482 305.75 8.482H303.968V16H302.804ZM307.838 16L305.174 12.172L306.446 12.118L309.248 16H307.838ZM309.804 16L313.188 7.408H314.376L317.754 16H316.512L314.166 9.838L313.794 8.74H313.758L313.392 9.838L311.034 16H309.804ZM311.238 13.834L311.598 12.766H315.828L316.2 13.834H311.238ZM321.626 16.198C321.098 16.198 320.63 16.124 320.222 15.976C319.814 15.828 319.472 15.612 319.196 15.328C318.924 15.044 318.722 14.746 318.59 14.434C318.462 14.122 318.398 13.966 318.398 13.966L319.448 13.522C319.448 13.522 319.504 13.65 319.616 13.906C319.732 14.158 319.884 14.382 320.072 14.578C320.26 14.77 320.486 14.914 320.75 15.01C321.018 15.106 321.324 15.154 321.668 15.154C322.22 15.154 322.654 15.02 322.97 14.752C323.286 14.484 323.444 14.138 323.444 13.714C323.444 13.306 323.314 12.982 323.054 12.742C322.798 12.498 322.236 12.252 321.368 12.004C320.396 11.72 319.724 11.382 319.352 10.99C318.98 10.598 318.794 10.108 318.794 9.52C318.794 8.844 319.046 8.29 319.55 7.858C320.054 7.422 320.714 7.204 321.53 7.204C321.978 7.204 322.374 7.264 322.718 7.384C323.062 7.5 323.358 7.672 323.606 7.9C323.854 8.124 324.042 8.36 324.17 8.608C324.302 8.852 324.368 8.974 324.368 8.974L323.336 9.424C323.336 9.424 323.29 9.344 323.198 9.184C323.106 9.024 322.978 8.868 322.814 8.716C322.654 8.564 322.468 8.45 322.256 8.374C322.048 8.294 321.8 8.254 321.512 8.254C321.032 8.254 320.648 8.364 320.36 8.584C320.076 8.804 319.934 9.092 319.934 9.448C319.934 9.8 320.066 10.084 320.33 10.3C320.598 10.516 321.15 10.752 321.986 11.008C322.914 11.276 323.578 11.62 323.978 12.04C324.382 12.456 324.584 12.99 324.584 13.642C324.584 14.398 324.312 15.014 323.768 15.49C323.228 15.962 322.514 16.198 321.626 16.198Z" fill="#F9F8F7"/>
</svg>
