<svg width="122" height="25" viewBox="0 0 122 25" fill="none" xmlns="http://www.w3.org/2000/svg">
<rect width="122" height="25" rx="12.5" fill="#37051C"/>
<path d="M13.152 16V7.408H16.266C17.082 7.408 17.736 7.66 18.228 8.164C18.72 8.668 18.966 9.332 18.966 10.156C18.966 11.004 18.716 11.678 18.216 12.178C17.72 12.678 17.024 12.928 16.128 12.928H13.812V11.866H16.056C16.604 11.866 17.028 11.722 17.328 11.434C17.632 11.142 17.784 10.73 17.784 10.198C17.784 9.674 17.63 9.258 17.322 8.95C17.018 8.638 16.606 8.482 16.086 8.482H14.316V16H13.152ZM20.6403 16V7.408H23.6163C24.4843 7.408 25.1743 7.64 25.6863 8.104C26.1983 8.564 26.4543 9.198 26.4543 10.006C26.4543 10.822 26.1803 11.472 25.6323 11.956C25.0843 12.44 24.3843 12.682 23.5323 12.682H21.2283V11.626H23.5203C24.0243 11.626 24.4423 11.488 24.7743 11.212C25.1063 10.932 25.2723 10.536 25.2723 10.024C25.2723 9.52 25.1143 9.138 24.7983 8.878C24.4863 8.614 24.0823 8.482 23.5863 8.482H21.8043V16H20.6403ZM25.6743 16L23.0103 12.172L24.2823 12.118L27.0843 16H25.6743ZM32.3884 16.198C31.1244 16.198 30.0604 15.78 29.1964 14.944C28.3324 14.108 27.9004 13.024 27.9004 11.692C27.9004 10.396 28.3264 9.324 29.1784 8.476C30.0344 7.628 31.1044 7.204 32.3884 7.204C33.6484 7.204 34.7104 7.626 35.5744 8.47C36.4424 9.31 36.8764 10.384 36.8764 11.692C36.8764 12.976 36.4464 14.048 35.5864 14.908C34.7264 15.768 33.6604 16.198 32.3884 16.198ZM32.3884 15.112C33.3244 15.112 34.1044 14.8 34.7284 14.176C35.3564 13.552 35.6704 12.724 35.6704 11.692C35.6704 10.676 35.3524 9.856 34.7164 9.232C34.0804 8.608 33.3044 8.296 32.3884 8.296C31.4604 8.296 30.6804 8.602 30.0484 9.214C29.4204 9.826 29.1064 10.652 29.1064 11.692C29.1064 12.728 29.4224 13.558 30.0544 14.182C30.6904 14.802 31.4684 15.112 32.3884 15.112ZM43.3448 16L40.8788 12.214L40.8128 12.202L37.6748 7.408H39.0248L41.2928 10.936L41.3948 10.954L44.7008 16H43.3448ZM37.4948 16L40.7768 10.954H40.8848L43.1528 7.408H44.4968L41.3468 12.232H41.2868L38.8328 16H37.4948ZM46.1637 16V7.408H47.3277V16H46.1637ZM49.6325 16V7.408H51.1625L54.0425 14.53H54.0785L56.9645 7.408H58.4525V16H57.3305V10.942L57.3845 9.106H57.3485L54.5525 16H53.5445L50.7245 9.094H50.6885L50.7545 10.942V16H49.6325ZM59.9016 16L63.2856 7.408H64.4736L67.8516 16H66.6096L64.2636 9.838L63.8916 8.74H63.8556L63.4896 9.838L61.1316 16H59.9016ZM61.3356 13.834L61.6956 12.766H65.9256L66.2976 13.834H61.3356ZM69.2965 16V7.408H70.8265L73.7065 14.53H73.7425L76.6285 7.408H78.1165V16H76.9945V10.942L77.0485 9.106H77.0125L74.2165 16H73.2085L70.3885 9.094H70.3525L70.4185 10.942V16H69.2965ZM80.4176 16V7.408H85.5896V8.482H81.5816V14.92H85.7156V16H80.4176ZM81.1136 12.13V11.056H85.0076V12.13H81.1136ZM87.5895 16V7.408H88.8495L93.2595 14.08H93.2955L93.2295 12.652V7.408H94.3575V16H93.2835L88.7055 9.16H88.6695L88.7175 10.54V16H87.5895ZM98.5018 16V7.888H99.6598V16H98.5018ZM95.8978 8.482V7.408H102.264V8.482H95.8978ZM103.797 16V7.408H108.969V8.482H104.961V14.92H109.095V16H103.797ZM104.493 12.13V11.056H108.387V12.13H104.493Z" fill="#F9F8F7"/>
</svg>
